<?xml version="1.0" encoding="UTF-8" standalone="no"?>
<!-- Generator: Adobe Illustrator 19.0.0, SVG Export Plug-In . SVG Version: 6.00 Build 0)  -->

<svg
   xmlns:dc="http://purl.org/dc/elements/1.1/"
   xmlns:cc="http://creativecommons.org/ns#"
   xmlns:rdf="http://www.w3.org/1999/02/22-rdf-syntax-ns#"
   xmlns:svg="http://www.w3.org/2000/svg"
   xmlns="http://www.w3.org/2000/svg"
   xmlns:sodipodi="http://sodipodi.sourceforge.net/DTD/sodipodi-0.dtd"
   xmlns:inkscape="http://www.inkscape.org/namespaces/inkscape"
   version="1.1"
   id="Layer_1"
   x="0px"
   y="0px"
   viewBox="0 0 507.2 507.2"
   style="enable-background:new 0 0 507.2 507.2;"
   xml:space="preserve"
   sodipodi:docname="build_success.svg"
   inkscape:version="0.92.1 r15371"><metadata
     id="metadata47"><rdf:RDF><cc:Work
         rdf:about=""><dc:format>image/svg+xml</dc:format><dc:type
           rdf:resource="http://purl.org/dc/dcmitype/StillImage" /></cc:Work></rdf:RDF></metadata><defs
     id="defs45" /><sodipodi:namedview
     pagecolor="#ffffff"
     bordercolor="#666666"
     borderopacity="1"
     objecttolerance="10"
     gridtolerance="10"
     guidetolerance="10"
     inkscape:pageopacity="0"
     inkscape:pageshadow="2"
     inkscape:window-width="451"
     inkscape:window-height="729"
     id="namedview43"
     showgrid="false"
     inkscape:zoom="0.23264984"
     inkscape:cx="160.11187"
     inkscape:cy="253.60001"
     inkscape:window-x="456"
     inkscape:window-y="18"
     inkscape:window-maximized="0"
     inkscape:current-layer="Layer_1" /><circle
     style="fill:#037e3f;fill-opacity:1"
     cx="253.6"
     cy="253.6"
     r="253.6"
     id="circle2" /><path
     style="fill:#036a36;fill-opacity:1"
     d="m 164.8,360 134.4,144.4 c 108,-28.8 208,-133.2 208,-250.8 V 232.4 L 414.8,130 Z"
     id="path4"
     inkscape:connector-curvature="0"
     sodipodi:nodetypes="ccsccc" /><g
     id="g4527"
     transform="translate(-9.2720885,3.2018065)"><g
       id="g10"><path
         sodipodi:nodetypes="cssccsscc"
         inkscape:connector-curvature="0"
         id="path6"
         d="m 240,328.4 c 11.2,11.2 31.2,12.4 20,23.6 l -23.2,23.2 c -11.2,11.2 -30.4,11.2 -41.6,0 L 93.6,272.8 c -11.2,-11.2 -14.284037,-34.75557 0,-41.6 l 19.2,-9.2 c 14.28404,-6.84443 14.4,-7.2 25.6,4 z"
         style="fill:#ffffff" /><path
         sodipodi:nodetypes="cssccsscc"
         inkscape:connector-curvature="0"
         id="path8"
         d="m 388.8,135.6 c 11.2,-11.2 19.11132,-25.86877 29.6,-14 l 15.2,17.2 c 10.48868,11.86877 11.2,30.4 0,41.6 l -196,193.2 c -11.2,11.2 -30.4,11.2 -41.6,0 l -23.2,-23.2 c -11.2,-11.2 8.8,-10.4 20,-21.6 z"
         style="fill:#ffffff" /></g></g><g
     id="g12" /><g
     id="g14" /><g
     id="g16" /><g
     id="g18" /><g
     id="g20" /><g
     id="g22" /><g
     id="g24" /><g
     id="g26" /><g
     id="g28" /><g
     id="g30" /><g
     id="g32" /><g
     id="g34" /><g
     id="g36" /><g
     id="g38" /><g
     id="g40" /></svg>