<?xml version="1.0" encoding="UTF-8" standalone="no"?>
<!-- Created with Inkscape (http://www.inkscape.org/) -->

<svg
   xmlns:dc="http://purl.org/dc/elements/1.1/"
   xmlns:cc="http://creativecommons.org/ns#"
   xmlns:rdf="http://www.w3.org/1999/02/22-rdf-syntax-ns#"
   xmlns:svg="http://www.w3.org/2000/svg"
   xmlns="http://www.w3.org/2000/svg"
   xmlns:sodipodi="http://sodipodi.sourceforge.net/DTD/sodipodi-0.dtd"
   xmlns:inkscape="http://www.inkscape.org/namespaces/inkscape"
   width="210mm"
   height="297mm"
   viewBox="0 0 210 297"
   version="1.1"
   id="svg5363"
   inkscape:version="0.92.1 r15371"
   sodipodi:docname="labx-logo.svg">
  <defs
     id="defs5357" />
  <sodipodi:namedview
     id="base"
     pagecolor="#ffffff"
     bordercolor="#666666"
     borderopacity="1.0"
     inkscape:pageopacity="0.0"
     inkscape:pageshadow="2"
     inkscape:zoom="0.35"
     inkscape:cx="400"
     inkscape:cy="560"
     inkscape:document-units="mm"
     inkscape:current-layer="layer1"
     showgrid="false"
     inkscape:window-width="1366"
     inkscape:window-height="768"
     inkscape:window-x="0"
     inkscape:window-y="0"
     inkscape:window-maximized="0"
     inkscape:snap-global="true"
     showguides="false">
    <sodipodi:guide
       position="0,0"
       orientation="0,793.70079"
       id="guide6014"
       inkscape:locked="false" />
    <sodipodi:guide
       position="210,0"
       orientation="-1122.5197,0"
       id="guide6016"
       inkscape:locked="false" />
    <sodipodi:guide
       position="210,297"
       orientation="0,-793.70079"
       id="guide6018"
       inkscape:locked="false" />
    <sodipodi:guide
       position="0,297"
       orientation="1122.5197,0"
       id="guide6020"
       inkscape:locked="false" />
    <sodipodi:guide
       position="0,0"
       orientation="0,793.70079"
       id="guide6041"
       inkscape:locked="false" />
    <sodipodi:guide
       position="210,0"
       orientation="-1122.5197,0"
       id="guide6043"
       inkscape:locked="false" />
    <sodipodi:guide
       position="210,297"
       orientation="0,-793.70079"
       id="guide6045"
       inkscape:locked="false" />
    <sodipodi:guide
       position="0,297"
       orientation="1122.5197,0"
       id="guide6047"
       inkscape:locked="false" />
  </sodipodi:namedview>
  <metadata
     id="metadata5360">
    <rdf:RDF>
      <cc:Work
         rdf:about="">
        <dc:format>image/svg+xml</dc:format>
        <dc:type
           rdf:resource="http://purl.org/dc/dcmitype/StillImage" />
        <dc:title></dc:title>
      </cc:Work>
    </rdf:RDF>
  </metadata>
  <g
     inkscape:label="Layer 1"
     inkscape:groupmode="layer"
     id="layer1">
    <g
       transform="matrix(0.91273298,0,0,0.92964894,-385.67618,35.160388)"
       id="g5178">
      <ellipse
         ry="25.539669"
         rx="87.521393"
         cy="248.938"
         cx="538.98743"
         id="ellipse5078"
         style="opacity:0.93300003;fill:#bbcfd1;fill-opacity:1;stroke:none;stroke-width:0.32752058;stroke-linecap:round;stroke-linejoin:round;stroke-miterlimit:4;stroke-dasharray:none;stroke-opacity:1" />
      <path
         sodipodi:nodetypes="cccc"
         d="m 468.87567,178.79269 c 0,0 7.99976,81.37731 47.7787,56.59069 2.41291,-1.50197 0.7813,-6.66549 8.35655,-10.8372 l -56.13525,-45.75349"
         style="fill:#28292a;fill-opacity:1;fill-rule:nonzero;stroke:none;stroke-width:0.11892053"
         id="path5080"
         inkscape:connector-curvature="0" />
      <path
         sodipodi:nodetypes="cccc"
         d="m 608.64297,178.79269 c 0,0 -10.75159,81.37731 -50.52816,56.59069 -2.4117,-1.50197 -3.25127,-10.09158 -8.35655,-10.8372 l 58.88471,-45.75349"
         style="fill:#28292a;fill-opacity:1;fill-rule:nonzero;stroke:none;stroke-width:0.11892053"
         id="path5082"
         inkscape:connector-curvature="0" />
      <path
         d="m 582.78489,21.354976 c 0,23.094351 -19.77293,41.817224 -44.16353,41.817224 -24.39298,0 -45.10655,-4.230005 -44.1647,-41.817224 0.57795,-23.0872423 6.53467,-41.817231 44.1647,-41.817231 33.35601,0 44.16353,18.7228727 44.16353,41.817231"
         style="fill:#28292a;fill-opacity:1;fill-rule:nonzero;stroke:none;stroke-width:0.11892053"
         id="path5084"
         inkscape:connector-curvature="0" />
      <path
         sodipodi:nodetypes="ccccscccc"
         d="m 582.31989,13.48361 c 0,0 2.0835,47.988001 5.59522,62.101502 10.33895,41.542518 29.37933,84.124378 17.8916,113.204048 -11.48772,29.08079 -3.87087,32.61871 -34.35137,36.84631 0,0 -21.91495,0.90165 -32.86852,0.59178 -21.72562,-0.61462 -54.61777,-8.3573 -66.68343,-37.43809 -12.06689,-29.07967 6.11726,-70.97654 16.9759,-112.519069 3.68892,-14.1135 5.81998,-56.092432 5.81998,-56.092432 l 87.62062,-6.694049"
         style="fill:#28292a;fill-opacity:1;fill-rule:nonzero;stroke:none;stroke-width:0.11892053"
         id="path5086"
         inkscape:connector-curvature="0" />
      <path
         d="m 501.9496,-7.1433911 c 0,0 -0.39839,0.6041143 -1.14523,1.7362573 -0.68377,1.1689843 -1.6815,2.8968814 -2.59601,5.25747368 -0.93471,2.34748122 -1.8599,5.28838612 -2.51994,8.74660442 -0.33771,1.7255357 -0.61245,3.5806807 -0.78723,5.5452537 -0.21406,1.959819 -0.11899,4.030205 -0.15237,6.206475 -0.2508,8.695464 -0.92998,18.797736 -1.71603,29.625483 -0.10213,1.352098 -0.20697,2.717307 -0.31147,4.090842 -0.15238,1.393768 -0.34489,2.753012 -0.52922,4.142024 -0.37104,2.769663 -0.76941,5.569051 -1.20111,8.387457 -0.42811,2.818406 -0.89665,5.654678 -1.43893,8.493311 -0.27709,1.417528 -0.59579,2.840993 -0.94539,4.247836 l -1.10124,4.196696 c -1.50672,5.589278 -3.05504,11.17023 -4.64263,16.644128 -1.5424,5.49293 -3.36427,10.80747 -4.96376,15.98054 -1.60543,5.179 -3.04437,10.2212 -4.29302,15.03156 -0.31046,1.2023 -0.61722,2.38911 -0.91925,3.5581 -0.27609,1.17491 -0.54823,2.33203 -0.8146,3.47007 -0.56964,2.26783 -0.96326,4.48809 -1.39851,6.61794 -0.43645,2.12749 -0.68259,4.18719 -1.02274,6.13275 -0.26528,1.95743 -0.49114,3.81854 -0.69329,5.56783 -0.33407,3.50818 -0.52919,6.57632 -0.58511,9.10575 -0.0644,2.53067 -0.004,4.52018 0.0499,5.87471 0.094,1.3521 0.14394,2.07396 0.14394,2.07396 0,0 -0.0607,-0.72065 -0.17495,-2.07278 -0.0749,-1.35449 -0.16417,-3.34286 -0.13687,-5.87707 0.0169,-2.53419 0.16653,-5.60828 0.44953,-9.12832 0.17731,-1.75528 0.37461,-3.6235 0.61243,-5.59046 0.31046,-1.95506 0.56252,-4.03142 0.98466,-6.1589 0.42218,-2.12629 0.80866,-4.36202 1.36522,-6.63814 0.26158,-1.14044 0.52799,-2.30113 0.79794,-3.4808 0.29597,-1.17256 0.597,-2.36177 0.90143,-3.56882 1.2237,-4.82461 2.63765,-9.87992 4.21692,-15.07554 1.5757,-5.2028 3.36662,-10.50902 4.87811,-15.99603 1.56261,-5.476282 3.0741,-11.058378 4.56656,-16.650051 l 1.12142,-4.191947 c 0.35321,-1.397302 0.6743,-2.792243 0.95733,-4.201447 0.55297,-2.820802 1.03458,-5.648741 1.47699,-8.460003 0.44473,-2.811295 0.85741,-5.605935 1.24153,-8.369625 0.19012,-1.37711 0.39481,-2.766095 0.54701,-4.109896 0.11191,-1.372361 0.22247,-2.735174 0.33305,-4.087309 0.84079,-10.813448 1.57094,-20.924083 1.86587,-29.583849 0.0475,-2.16198 -0.0513,-4.262126 0.19619,-6.239783 0.20462,-1.972892 0.5078,-3.8328 0.87288,-5.5619052 0.71472,-3.4629665 1.68748,-6.4014828 2.65905,-8.74066736 0.95258,-2.35341824 1.97884,-4.07183894 2.68047,-5.23010894 0.7635,-1.1214215 1.17021,-1.7195996 1.17021,-1.7195996"
         style="fill:#141414;fill-opacity:1;fill-rule:nonzero;stroke:none;stroke-width:0.11892053"
         id="path5088"
         inkscape:connector-curvature="0" />
      <path
         sodipodi:nodetypes="ccccccccccccccccccccccccccccccccccccccccccccccccccccccccccccccccc"
         d="m 575.1776,-3.0830351 1.1012,1.6173283 c 0.35916,0.54582366 0.66241,1.1249618 0.99776,1.68627062 0.6255,1.14636858 1.20825,2.31896568 1.70176,3.52958348 0.26631,0.5969626 0.49826,1.2082213 0.7159,1.8242367 0.23293,0.6112617 0.44833,1.2296302 0.63624,1.8551447 0.40431,1.2439272 0.74679,2.5080441 1.0429,3.7816963 0.31148,1.270054 0.54944,2.557968 0.76703,3.848278 0.20564,1.292634 0.38295,2.590089 0.49473,3.895834 0.12742,1.309285 0.082,2.628111 0.11192,3.926746 -0.004,1.306932 0.0617,2.607928 0.12237,3.910095 0.21405,5.206342 0.61007,10.416253 0.98584,15.621408 0.40788,5.203981 0.83363,10.406746 1.30456,15.604754 l -0.004,-0.02019 c 0.7789,4.484478 1.10133,8.965416 1.96946,13.432056 0.44594,2.230984 1.37101,4.465502 1.86926,6.682153 0.45906,2.228589 1.08459,4.395317 1.62923,6.625079 1.07265,4.440484 1.94793,8.905951 2.96707,13.340505 0.50183,2.219037 1.02154,4.433337 1.61018,6.626267 0.59696,2.18457 1.21062,4.38817 2.13582,6.4205 l 0.0101,0.027 0.004,0.0169 c 1.6411,5.41328 3.18113,10.8515 4.65691,16.30996 0.71711,2.73399 1.45083,5.46439 2.11322,8.21264 0.70164,2.73875 1.30576,5.50248 1.93724,8.25785 0.30069,1.39019 0.54701,2.77442 0.82292,4.16221 0.28889,1.38187 0.51731,2.77799 0.71829,4.18008 0.20091,1.40206 0.45784,2.79583 0.58389,4.20503 0.1463,1.40683 0.32226,2.81007 0.44358,4.2193 l 0.29968,4.23119 0.14158,4.23832 c -0.0202,1.41397 0.0381,2.82795 -0.0417,4.23952 -0.0338,1.41398 -0.13788,2.82319 -0.27002,4.22999 0.11057,-1.4092 0.19619,-2.8184 0.20697,-4.23117 0.0596,-1.41161 -0.0203,-2.82437 -0.0203,-4.23594 l -0.20327,-4.23003 -0.36272,-4.21811 c -0.14258,-1.40445 -0.3389,-2.80296 -0.5054,-4.20384 -0.14732,-1.40327 -0.42576,-2.78749 -0.62791,-4.18244 -0.20698,-1.39494 -0.44121,-2.7851 -0.73731,-4.16815 -0.2818,-1.38185 -0.53871,-2.77915 -0.84196,-4.14794 -0.64453,-2.74947 -1.26172,-5.50484 -1.97763,-8.23644 -0.67546,-2.74233 -1.42231,-5.4656 -2.15246,-8.19364 -1.50197,-5.44419 -3.06934,-10.87291 -4.73541,-16.26715 l 0.0169,0.0418 c -0.97397,-2.11322 -1.59474,-4.31562 -2.20957,-6.51447 -0.60172,-2.20363 -1.13569,-4.42028 -1.64942,-6.640531 l -3.00347,-13.326226 c -0.52561,-2.19646 -1.15115,-4.413147 -1.59946,-6.648845 -0.48998,-2.228589 -1.40432,-4.467856 -1.83836,-6.704734 -0.8479,-4.478548 -1.14658,-8.964236 -1.90407,-13.457074 l -7.1e-4,-0.01351 -7.1e-4,-0.01009 c -0.44594,-5.203975 -0.84437,-10.410316 -1.22609,-15.619012 -0.34843,-5.212305 -0.71826,-10.417461 -0.90616,-15.647562 -0.0559,-1.305752 -0.11427,-2.612712 -0.10348,-3.917248 -0.0202,-1.310501 0.027,-2.60674 -0.0879,-3.90059 -0.0917,-1.297419 -0.24845,-2.59009 -0.43408,-3.878004 -0.19755,-1.287913 -0.41504,-2.572258 -0.70639,-3.841125 -0.2759,-1.2736892 -0.59952,-2.5378061 -0.98363,-3.7817332 C 579.9852,6.8530206 579.7796,6.234616 579.55721,5.6221754 579.34788,5.0049857 579.12671,4.3925463 578.86983,3.7931887 578.39538,2.5789952 577.83049,1.4004693 577.224,0.24816361 576.89938,-0.31672088 576.60323,-0.89942924 576.25359,-1.4500446 L 575.1762,-3.083988"
         style="fill:#141414;fill-opacity:1;fill-rule:nonzero;stroke:none;stroke-width:0.11892053"
         id="path5090"
         inkscape:connector-curvature="0" />
      <path
         sodipodi:nodetypes="ccccaacacsccscacaacccsc"
         d="m 538.68798,219.03105 c 10.80391,0 27.95584,-1.36535 37.62764,-8.869 9.6718,-7.50481 14.58439,-13.64541 17.26132,-35.47595 2.67688,-21.83172 -6.91287,-32.06605 -9.73249,-44.87222 -2.8184,-12.80616 -1.96298,-41.011135 -9.99049,-59.56406 -2.3413,-5.411167 -10.28522,-8.347122 -10.74565,-14.196841 -0.34311,-4.358789 6.25878,-11.630758 6.25878,-11.630758 7.84756,-7.272257 9.42424,-18.452351 6.94853,-27.620063 -2.65347,-9.8259795 -8.56703,-22.423437 -21.46041,-22.2875834 -7.13285,0.074898 -11.01174,9.0224443 -11.32362,17.9512864 -0.3118,8.928835 4.6762,14.57641 4.6762,14.57641 l -18.92134,-0.05563 c 0,0 4.9643,-4.90642 4.83007,-14.063789 -0.13416,-9.1573676 -3.83563,-18.3334496 -10.96908,-18.4082754 -16.0746,-0.1357565 -19.38056,12.3332869 -22.15611,22.2875834 -2.55088,9.148462 -0.89903,20.347806 6.94974,27.620063 0,0 6.93665,7.189214 6.74158,11.630758 -0.28451,6.475131 -8.70147,10.106008 -11.27959,16.087141 -7.7942,18.082164 -8.9048,44.867598 -11.72321,57.673758 -2.8208,12.80617 -10.62673,23.0405 -7.94984,44.87222 2.6781,21.83054 7.58835,27.97114 17.26132,35.47595 9.67184,7.50365 26.82255,8.869 37.62768,8.869 h 0.0687"
         style="fill:#fcfefd;fill-opacity:1;fill-rule:nonzero;stroke:none;stroke-width:0.11700581"
         id="path5092"
         inkscape:connector-curvature="0" />
      <path
         d="m 501.81904,253.91478 c -3.47962,-1.6637 -8.37795,-6.92832 -8.37795,-6.92832 -2.80296,2.21907 -5.63328,2.8993 -8.05211,2.8993 -3.82687,0 -6.6203,-1.70417 -6.6203,-1.70417 0,-5.40252 4.82814,-10.09036 11.9051,-12.43788 3.41423,2.71615 7.33029,4.33703 11.81833,4.33703 0.60173,0 1.21539,-0.0269 1.83732,-0.0879 0.85266,2.01688 2.84936,3.43441 5.17661,3.43441 3.10147,0 5.61544,-2.51754 5.61544,-5.61662 0,-0.31282 -0.0236,-0.61955 -0.0749,-0.91805 8.16626,4.08731 8.16626,11.28913 8.16626,11.28913 -2.1346,1.52455 -4.21096,2.04544 -6.05303,2.04544 -3.96126,-7.2e-4 -6.8332,-2.40934 -6.8332,-2.40934 -2.41051,2.77203 -8.50757,6.09705 -8.50757,6.09705"
         style="fill:#848b8e;fill-opacity:1;fill-rule:nonzero;stroke:none;stroke-width:0.11892053"
         id="path5094"
         inkscape:connector-curvature="0" />
      <path
         d="m 509.50604,243.42717 c -2.32725,0 -4.32395,-1.41752 -5.17661,-3.43441 3.12524,-0.29833 6.51092,-1.36521 10.18197,-3.35834 0.18204,0.0846 0.36036,0.17024 0.53514,0.25821 0.0499,0.29834 0.0749,0.60531 0.0749,0.91806 0,3.09908 -2.51396,5.61662 -5.6154,5.61662"
         style="fill:#898e90;fill-opacity:1;fill-rule:nonzero;stroke:none;stroke-width:0.11892053"
         id="path5096"
         inkscape:connector-curvature="0" />
      <path
         d="m 502.49211,240.08074 c -4.48804,0 -8.4041,-1.62088 -11.81833,-4.33703 3.08364,-1.02272 6.59296,-1.60067 10.31637,-1.60067 5.96504,0 10.32826,1.01086 13.52125,2.49138 -3.67105,1.99313 -7.05673,3.05984 -10.18197,3.35834 -0.62193,0.0596 -1.23559,0.0879 -1.83732,0.0879"
         style="fill:#1c1c1d;fill-opacity:1;fill-rule:nonzero;stroke:none;stroke-width:0.11892053"
         id="path5098"
         inkscape:connector-curvature="0" />
      <path
         d="m 523.21284,246.7724 c 0,0 0,-14.03975 -22.22269,-14.03975 -12.27139,0 -22.22147,6.28377 -22.22147,14.03975 0,0 7.43489,4.53565 14.67241,-1.19514 0,0 4.89833,5.26461 8.37795,6.9271 0,0 6.09706,-3.32498 8.50757,-6.09703 0,0 6.16008,5.16949 12.88623,0.36507"
         style="fill:#f89e4e;fill-opacity:1;fill-rule:nonzero;stroke:none;stroke-width:0.11892053"
         id="path5100"
         inkscape:connector-curvature="0" />
      <path
         d="m 576.24901,253.91478 c -3.47963,-1.6637 -8.37796,-6.92832 -8.37796,-6.92832 -2.80296,2.21907 -5.63327,2.8993 -8.05211,2.8993 -3.82687,0 -6.61911,-1.70417 -6.61911,-1.70417 0,-1.80282 0.53753,-3.52479 1.51626,-5.10759 0.61123,0.22822 1.27245,0.35317 1.96336,0.35317 3.10144,0 5.61662,-2.51754 5.61662,-5.61662 0,-0.0523 -7.1e-4,-0.10348 -0.004,-0.15574 3.6306,1.6744 6.99251,2.42597 10.11299,2.42597 4.82935,0 9.0665,-1.80284 12.77444,-4.79367 12.46287,3.34759 12.46166,12.89452 12.46166,12.89452 -2.13461,1.52459 -4.21096,2.04544 -6.05184,2.04544 -3.96245,-7.1e-4 -6.83318,-2.40933 -6.83318,-2.40933 -2.41173,2.77206 -8.50878,6.09709 -8.50878,6.09709"
         style="fill:#848b8e;fill-opacity:1;fill-rule:nonzero;stroke:none;stroke-width:0.11892053"
         id="path5102"
         inkscape:connector-curvature="0" />
      <path
         d="m 556.67945,243.42717 c -0.69091,0 -1.35213,-0.12472 -1.96336,-0.35317 1.4187,-2.29398 3.76501,-4.29426 6.74634,-5.81642 0.27945,0.13788 0.55535,0.27002 0.83127,0.39721 7.2e-4,0.0523 0.004,0.10348 0.004,0.15573 0,3.09908 -2.5152,5.61662 -5.61663,5.61662"
         style="fill:#898e90;fill-opacity:1;fill-rule:nonzero;stroke:none;stroke-width:0.11892053"
         id="path5104"
         inkscape:connector-curvature="0" />
      <path
         d="m 572.40671,240.08074 c -3.1205,0 -6.48239,-0.75155 -10.11301,-2.42595 -0.27607,-0.12743 -0.5518,-0.25924 -0.83127,-0.39721 3.81496,-1.94791 8.67051,-3.11454 13.95772,-3.11454 3.89701,0 7.11145,0.43168 9.76101,1.14404 -3.70795,2.99082 -7.9451,4.79366 -12.77445,4.79366"
         style="fill:#1c1c1d;fill-opacity:1;fill-rule:nonzero;stroke:none;stroke-width:0.11892053"
         id="path5106"
         inkscape:connector-curvature="0" />
      <path
         d="m 597.6428,246.7724 c 0,0 0,-14.03975 -22.22265,-14.03975 -12.27143,0 -22.22032,6.28377 -22.22032,14.03975 0,0 7.43373,4.53565 14.67122,-1.19514 0,0 4.89833,5.26461 8.37796,6.9271 0,0 6.09705,-3.32498 8.50878,-6.09703 0,0 6.15886,5.16949 12.88501,0.36507"
         style="fill:#f89e4e;fill-opacity:1;fill-rule:nonzero;stroke:none;stroke-width:0.11892053"
         id="path5108"
         inkscape:connector-curvature="0" />
      <g
         transform="matrix(3.3709758,0,0,3.3709758,-243.70126,-339.53719)"
         id="g5114">
        <path
           style="fill:#28292a;fill-opacity:1;fill-rule:evenodd;stroke:none;stroke-width:0.44182959px;stroke-linecap:butt;stroke-linejoin:miter;stroke-opacity:1"
           d="m 225.99171,97.343152 c 0,0 4.10182,-2.576096 6.40324,-3.213954 1.75696,-0.486949 5.45396,-0.412843 5.45396,-0.412843 0,0 -2.18483,0.448577 -3.12992,1.002626 -1.60387,0.940251 -4.0792,3.803736 -4.0792,3.803736 z"
           id="path5110"
           inkscape:connector-curvature="0"
           sodipodi:nodetypes="cacacc" />
        <path
           sodipodi:nodetypes="cacacc"
           inkscape:connector-curvature="0"
           id="path5112"
           d="m 226.98583,95.571484 c 0,0 2.86282,-2.135143 4.45825,-2.745827 2.20063,-0.842343 6.86107,-1.192646 6.86107,-1.192646 0,0 -3.65494,0.586509 -5.22779,1.620697 -1.13972,0.749391 -2.82497,3.173882 -2.82497,3.173882 z"
           style="fill:#28292a;fill-opacity:1;fill-rule:evenodd;stroke:none;stroke-width:0.33312929px;stroke-linecap:butt;stroke-linejoin:miter;stroke-opacity:1" />
      </g>
      <ellipse
         style="opacity:1;fill:#000000;fill-opacity:1;stroke:none;stroke-width:1.28927505;stroke-linecap:round;stroke-linejoin:round;stroke-miterlimit:4;stroke-dasharray:none;stroke-opacity:1"
         id="ellipse5116"
         cx="517.75195"
         cy="16.793108"
         rx="6.2090511"
         ry="7.4508619" />
      <circle
         style="opacity:0.93300003;fill:#ffffff;fill-opacity:1;stroke:none;stroke-width:1.15113831;stroke-linecap:round;stroke-linejoin:round;stroke-miterlimit:4;stroke-dasharray:none;stroke-opacity:1"
         id="circle5118"
         cx="521.2998"
         cy="22.410982"
         r="1.6261802" />
      <circle
         r="2.9566913"
         cy="12.210405"
         cx="514.20392"
         id="circle5120"
         style="opacity:0.93599997;fill:#ffffff;fill-opacity:1;stroke:none;stroke-width:2.09297895;stroke-linecap:round;stroke-linejoin:round;stroke-miterlimit:4;stroke-dasharray:none;stroke-opacity:1" />
      <g
         transform="matrix(2.6561607,2.0756418,-2.0756418,2.6561607,149.1809,-694.58503)"
         id="g5138">
        <g
           transform="matrix(-0.65162114,0.75854459,0.75854459,0.65162114,297.85881,-144.44853)"
           id="g5128">
          <g
             id="g5124">
            <path
               inkscape:connector-curvature="0"
               id="path5122"
               style="fill:#28292a;fill-opacity:1;fill-rule:nonzero;stroke:none;stroke-width:0.03527778"
               d="m 220.8519,112.47067 c 0,0 -3.05964,13.74563 -11.86095,20.91302 -8.80128,7.16703 1.25649,7.64681 4.78141,6.25087 4.179,-1.65523 7.97137,-6.01451 8.09307,-18.31869" />
          </g>
          <path
             d="m 221.71993,118.60091 c 0,0 -0.0709,8.40009 -3.95206,15.10737 -1.70449,2.94398 -3.02053,4.07965 -7.81571,6.41517 0,0 4.7004,0.64822 8.33723,-4.38363 0,0 4.63536,-4.7922 3.43054,-17.13891"
             style="fill:#212224;fill-opacity:1;fill-rule:nonzero;stroke:none;stroke-width:0.03527778"
             id="path5126"
             inkscape:connector-curvature="0" />
        </g>
        <g
           id="g5136"
           transform="rotate(-26.675234,220.91848,119.64958)">
          <g
             id="g5132">
            <path
               d="m 220.8519,112.47067 c 0,0 -3.05964,13.74563 -11.86095,20.91302 -8.80128,7.16703 1.25649,7.64681 4.78141,6.25087 4.179,-1.65523 7.97137,-6.01451 8.09307,-18.31869"
               style="fill:#28292a;fill-opacity:1;fill-rule:nonzero;stroke:none;stroke-width:0.03527778"
               id="path5130"
               inkscape:connector-curvature="0" />
          </g>
          <path
             inkscape:connector-curvature="0"
             id="path5134"
             style="fill:#212224;fill-opacity:1;fill-rule:nonzero;stroke:none;stroke-width:0.03527778"
             d="m 221.71993,118.60091 c 0,0 -0.0709,8.40009 -3.95206,15.10737 -1.70449,2.94398 -3.02053,4.07965 -7.81571,6.41517 0,0 4.7004,0.64822 8.33723,-4.38363 0,0 4.63536,-4.7922 3.43054,-17.13891" />
        </g>
      </g>
      <ellipse
         ry="7.4508619"
         rx="6.2090511"
         cy="16.793108"
         cx="559.26935"
         id="ellipse5140"
         style="opacity:1;fill:#000000;fill-opacity:1;stroke:none;stroke-width:1.28927505;stroke-linecap:round;stroke-linejoin:round;stroke-miterlimit:4;stroke-dasharray:none;stroke-opacity:1" />
      <circle
         r="1.6261802"
         cy="22.410982"
         cx="562.8172"
         id="circle5142"
         style="opacity:0.93300003;fill:#ffffff;fill-opacity:1;stroke:none;stroke-width:1.15113831;stroke-linecap:round;stroke-linejoin:round;stroke-miterlimit:4;stroke-dasharray:none;stroke-opacity:1" />
      <circle
         style="opacity:0.93599997;fill:#ffffff;fill-opacity:1;stroke:none;stroke-width:2.09297895;stroke-linecap:round;stroke-linejoin:round;stroke-miterlimit:4;stroke-dasharray:none;stroke-opacity:1"
         id="circle5144"
         cx="555.72131"
         cy="12.210405"
         r="2.9566913" />
      <g
         transform="matrix(3.3709758,0,0,3.3709758,-243.70126,-337.75337)"
         id="g5154">
        <g
           id="g5150"
           transform="matrix(1.0659342,0,0,0.85508843,-16.125564,9.4536598)">
          <path
             sodipodi:nodetypes="ccaaacassc"
             inkscape:connector-curvature="0"
             id="path5146"
             d="m 230.56717,115.39208 c 0.82867,-0.19536 2.33504,-0.25166 2.33504,-0.25166 0,0 1.55548,0.17496 2.33433,0.25166 0.10197,0.01 0.22689,-0.0376 0.30619,0.0273 0.0933,0.0764 0.11568,0.2269 0.10274,0.34675 -0.20354,1.88555 -2.74326,4.98447 -2.74326,4.98447 0,0 -2.52112,-3.08247 -2.75332,-4.95878 -0.0163,-0.13191 -7.8e-4,-0.30191 0.10274,-0.38528 0.082,-0.066 0.31554,-0.11987 0.31554,-0.0145 z"
             style="fill:#c25f08;fill-opacity:1;fill-rule:evenodd;stroke:none;stroke-width:0.03;stroke-linecap:butt;stroke-linejoin:miter;stroke-miterlimit:4;stroke-dasharray:none;stroke-opacity:1" />
          <path
             style="fill:#f89e4e;fill-opacity:1;fill-rule:evenodd;stroke:none;stroke-width:0.03;stroke-linecap:butt;stroke-linejoin:miter;stroke-miterlimit:4;stroke-dasharray:none;stroke-opacity:1"
             d="m 230.56717,115.32927 c 0.82867,-0.19536 2.33504,-1.03505 2.33504,-1.03505 0,0 1.51029,0.82188 2.33433,1.03505 0.0992,0.0257 0.22689,-0.0376 0.30619,0.0273 0.0933,0.0764 0.12018,0.22747 0.10274,0.34675 -0.24201,1.65487 -2.74326,4.20108 -2.74326,4.20108 0,0 -2.48576,-2.52984 -2.75332,-4.17539 -0.0213,-0.13119 -7.8e-4,-0.30191 0.10274,-0.38528 0.082,-0.066 0.21306,0.01 0.31554,-0.0145 z"
             id="path5148"
             inkscape:connector-curvature="0"
             sodipodi:nodetypes="ccaaacassc" />
        </g>
        <circle
           style="opacity:1;fill:#c25f08;fill-opacity:1;stroke:none;stroke-width:0.01909091;stroke-linecap:round;stroke-linejoin:round;stroke-miterlimit:4;stroke-dasharray:none;stroke-opacity:1"
           id="circle5152"
           cx="230.1124"
           cy="108.95078"
           r="0.25426784" />
      </g>
      <g
         transform="translate(0.32380425,0.31571251)"
         id="g5176">
        <g
           id="g5164">
          <circle
             style="opacity:1;fill:#9dd5ef;fill-opacity:1;stroke:#444648;stroke-width:0.2249345;stroke-linecap:round;stroke-linejoin:round;stroke-miterlimit:4;stroke-dasharray:none;stroke-opacity:1"
             id="circle5156"
             cx="559.18109"
             cy="16.589718"
             r="10.887533" />
          <ellipse
             style="opacity:1;fill:#000000;fill-opacity:1;stroke:none;stroke-width:1.36893237;stroke-linecap:round;stroke-linejoin:round;stroke-miterlimit:4;stroke-dasharray:none;stroke-opacity:1"
             id="ellipse5158"
             cx="559.18109"
             cy="16.589718"
             rx="7"
             ry="7.4508619" />
          <circle
             style="opacity:0.93300003;fill:#ffffff;fill-opacity:1;stroke:none;stroke-width:1.15113831;stroke-linecap:round;stroke-linejoin:round;stroke-miterlimit:4;stroke-dasharray:none;stroke-opacity:1"
             id="circle5160"
             cx="562.8172"
             cy="22.410982"
             r="1.6261802" />
          <circle
             r="2.9566913"
             cy="12.210405"
             cx="555.72131"
             id="circle5162"
             style="opacity:0.93599997;fill:#ffffff;fill-opacity:1;stroke:none;stroke-width:2.09297895;stroke-linecap:round;stroke-linejoin:round;stroke-miterlimit:4;stroke-dasharray:none;stroke-opacity:1" />
        </g>
        <g
           transform="translate(-41.429138)"
           id="g5174">
          <circle
             r="10.887533"
             cy="16.589718"
             cx="559.18109"
             id="circle5166"
             style="opacity:1;fill:#9dd5ef;fill-opacity:1;stroke:#444648;stroke-width:0.2249345;stroke-linecap:round;stroke-linejoin:round;stroke-miterlimit:4;stroke-dasharray:none;stroke-opacity:1" />
          <ellipse
             ry="7.4508619"
             rx="7"
             cy="16.589718"
             cx="559.18109"
             id="ellipse5168"
             style="opacity:1;fill:#000000;fill-opacity:1;stroke:none;stroke-width:1.36893237;stroke-linecap:round;stroke-linejoin:round;stroke-miterlimit:4;stroke-dasharray:none;stroke-opacity:1" />
          <circle
             r="1.6261802"
             cy="22.410982"
             cx="562.8172"
             id="circle5170"
             style="opacity:0.93300003;fill:#ffffff;fill-opacity:1;stroke:none;stroke-width:1.15113831;stroke-linecap:round;stroke-linejoin:round;stroke-miterlimit:4;stroke-dasharray:none;stroke-opacity:1" />
          <circle
             style="opacity:0.93599997;fill:#ffffff;fill-opacity:1;stroke:none;stroke-width:2.09297895;stroke-linecap:round;stroke-linejoin:round;stroke-miterlimit:4;stroke-dasharray:none;stroke-opacity:1"
             id="circle5172"
             cx="555.72131"
             cy="12.210405"
             r="2.9566913" />
        </g>
      </g>
    </g>
  </g>
</svg>
