<?xml version="1.0" encoding="UTF-8" standalone="no"?>
<!-- Generator: Adobe Illustrator 18.0.0, SVG Export Plug-In . SVG Version: 6.00 Build 0)  -->

<svg
   xmlns:dc="http://purl.org/dc/elements/1.1/"
   xmlns:cc="http://creativecommons.org/ns#"
   xmlns:rdf="http://www.w3.org/1999/02/22-rdf-syntax-ns#"
   xmlns:svg="http://www.w3.org/2000/svg"
   xmlns="http://www.w3.org/2000/svg"
   xmlns:sodipodi="http://sodipodi.sourceforge.net/DTD/sodipodi-0.dtd"
   xmlns:inkscape="http://www.inkscape.org/namespaces/inkscape"
   version="1.1"
   id="Capa_1"
   x="0px"
   y="0px"
   viewBox="0 0 350 350"
   style="enable-background:new 0 0 350 350;"
   xml:space="preserve"
   sodipodi:docname="modules.svg"
   inkscape:version="0.92.1 r15371"><metadata
     id="metadata47"><rdf:RDF><cc:Work
         rdf:about=""><dc:format>image/svg+xml</dc:format><dc:type
           rdf:resource="http://purl.org/dc/dcmitype/StillImage" /><dc:title></dc:title></cc:Work></rdf:RDF></metadata><defs
     id="defs45" /><sodipodi:namedview
     pagecolor="#ffffff"
     bordercolor="#666666"
     borderopacity="1"
     objecttolerance="10"
     gridtolerance="10"
     guidetolerance="10"
     inkscape:pageopacity="0"
     inkscape:pageshadow="2"
     inkscape:window-width="1362"
     inkscape:window-height="729"
     id="namedview43"
     showgrid="false"
     inkscape:zoom="0.73"
     inkscape:cx="115.41096"
     inkscape:cy="124.90611"
     inkscape:window-x="1680"
     inkscape:window-y="18"
     inkscape:window-maximized="0"
     inkscape:current-layer="Capa_1"><sodipodi:guide
       position="0,0"
       orientation="0,350"
       id="guide4524"
       inkscape:locked="false" /><sodipodi:guide
       position="350,0"
       orientation="-350,0"
       id="guide4526"
       inkscape:locked="false" /><sodipodi:guide
       position="350,350"
       orientation="0,-350"
       id="guide4528"
       inkscape:locked="false" /><sodipodi:guide
       position="0,350"
       orientation="350,0"
       id="guide4530"
       inkscape:locked="false" /></sodipodi:namedview><g
     id="g4546"
     transform="matrix(1.0287958,0,0,1.0287958,-5.039265,-7.5550815)"><circle
       r="130.82191"
       cy="201"
       cx="175"
       id="path4536"
       style="opacity:1;vector-effect:none;fill:#000000;fill-opacity:0.25490198;fill-rule:nonzero;stroke:none;stroke-width:0.23;stroke-linecap:butt;stroke-linejoin:miter;stroke-miterlimit:4;stroke-dasharray:none;stroke-dashoffset:0;stroke-opacity:1" /></g><g
     id="g12" /><g
     id="g14" /><g
     id="g16" /><g
     id="g18" /><g
     id="g20" /><g
     id="g22" /><g
     id="g24" /><g
     id="g26" /><g
     id="g28" /><g
     id="g30" /><g
     id="g32" /><g
     id="g34" /><g
     id="g36" /><g
     id="g38" /><g
     id="g40" /><g
     id="g4651"
     transform="matrix(3.3742143,0,0,3.3742143,85.051474,121.28575)"><g
       id="g4593"><path
         id="path4587"
         d="m 0.752,13.507 c -0.762,-0.05 -0.981,0.386 -0.49,0.972 l 8.586,10.207 c 0.492,0.586 1.508,1.039 2.271,1.014 L 22.423,25.615 9.133,14.026 Z"
         inkscape:connector-curvature="0" /><path
         id="path4589"
         d="M 52.643,12.065 34.729,6.569 C 34,6.345 32.973,6.607 32.438,7.152 l -3.158,3.209 c -0.082,0.083 -0.143,0.171 -0.193,0.258 L 25.683,6.424 C 25.417,5.709 24.587,5.202 23.829,5.294 L 7.915,7.21 C 7.157,7.302 6.826,7.926 7.174,8.603 l 1.96,5.424 20.238,-2.235 c 0.062,0.042 0.128,0.079 0.204,0.112 l 15.686,6.892 -22.839,6.819 5.589,8.399 c 0.403,0.647 1.319,0.985 2.045,0.748 L 51.7,27.752 c 0.726,-0.233 0.894,-0.878 0.375,-1.438 l -4.708,-7.308 c 0.247,-0.098 0.475,-0.237 0.649,-0.416 L 53,13.461 c 0.534,-0.549 0.373,-1.172 -0.357,-1.396 z"
         inkscape:connector-curvature="0" /><path
         id="path4591"
         d="m 29.363,36.774 c -0.725,0.237 -1.631,-0.1 -2.025,-0.755 l -5.247,-8.72 h -11.92 v 3.864 c 0,0.553 0.287,1.344 0.641,1.768 l 12.193,14.618 c 0.354,0.424 1.056,0.603 1.569,0.396 l 18.873,-7.551 c 0.513,-0.205 0.979,-0.815 1.041,-1.364 l 0.839,-7.471 z"
         inkscape:connector-curvature="0" /></g><g
       id="g4595" /><g
       id="g4597" /><g
       id="g4599" /><g
       id="g4601" /><g
       id="g4603" /><g
       id="g4605" /><g
       id="g4607" /><g
       id="g4609" /><g
       id="g4611" /><g
       id="g4613" /><g
       id="g4615" /><g
       id="g4617" /><g
       id="g4619" /><g
       id="g4621" /><g
       id="g4623" /></g></svg>