<?xml version="1.0" encoding="UTF-8" standalone="no"?>
<!-- Generator: Adobe Illustrator 18.0.0, SVG Export Plug-In . SVG Version: 6.00 Build 0)  -->

<svg
   xmlns:dc="http://purl.org/dc/elements/1.1/"
   xmlns:cc="http://creativecommons.org/ns#"
   xmlns:rdf="http://www.w3.org/1999/02/22-rdf-syntax-ns#"
   xmlns:svg="http://www.w3.org/2000/svg"
   xmlns="http://www.w3.org/2000/svg"
   xmlns:sodipodi="http://sodipodi.sourceforge.net/DTD/sodipodi-0.dtd"
   xmlns:inkscape="http://www.inkscape.org/namespaces/inkscape"
   version="1.1"
   id="Capa_1"
   x="0px"
   y="0px"
   viewBox="0 0 350 350"
   style="enable-background:new 0 0 350 350;"
   xml:space="preserve"
   sodipodi:docname="user_profile.svg"
   inkscape:version="0.92.1 r15371"><metadata
     id="metadata47"><rdf:RDF><cc:Work
         rdf:about=""><dc:format>image/svg+xml</dc:format><dc:type
           rdf:resource="http://purl.org/dc/dcmitype/StillImage" /></cc:Work></rdf:RDF></metadata><defs
     id="defs45" /><sodipodi:namedview
     pagecolor="#ffffff"
     bordercolor="#666666"
     borderopacity="1"
     objecttolerance="10"
     gridtolerance="10"
     guidetolerance="10"
     inkscape:pageopacity="0"
     inkscape:pageshadow="2"
     inkscape:window-width="1362"
     inkscape:window-height="729"
     id="namedview43"
     showgrid="false"
     inkscape:zoom="0.73"
     inkscape:cx="175"
     inkscape:cy="124.90611"
     inkscape:window-x="1680"
     inkscape:window-y="18"
     inkscape:window-maximized="0"
     inkscape:current-layer="g4546"><sodipodi:guide
       position="0,0"
       orientation="0,350"
       id="guide4524"
       inkscape:locked="false" /><sodipodi:guide
       position="350,0"
       orientation="-350,0"
       id="guide4526"
       inkscape:locked="false" /><sodipodi:guide
       position="350,350"
       orientation="0,-350"
       id="guide4528"
       inkscape:locked="false" /><sodipodi:guide
       position="0,350"
       orientation="350,0"
       id="guide4530"
       inkscape:locked="false" /></sodipodi:namedview><g
     id="g4546"
     transform="matrix(1.0287958,0,0,1.0287958,-5.039265,-7.5550815)"><circle
       r="130.82191"
       cy="201"
       cx="175"
       id="path4536"
       style="opacity:1;vector-effect:none;fill:#000000;fill-opacity:0.25490198;fill-rule:nonzero;stroke:none;stroke-width:0.23;stroke-linecap:butt;stroke-linejoin:miter;stroke-miterlimit:4;stroke-dasharray:none;stroke-dashoffset:0;stroke-opacity:1" /><g
       transform="matrix(0.69539759,0,0,0.69539759,53.305315,75.726026)"
       id="g10"><path
         inkscape:connector-curvature="0"
         id="path2"
         d="m 175,191.30535 c 38.914,0 70.463,-38.318 70.463,-85.58598 0,-47.268999 -10.358,-85.587001 -70.463,-85.587001 -60.105,0 -70.465,38.318002 -70.465,85.587001 0,47.26798 31.549,85.58598 70.465,85.58598 z" /><path
         inkscape:connector-curvature="0"
         id="path4"
         d="m 41.909,301.853 c -0.012,-2.882 -0.024,-0.812 0,0 z" /><path
         inkscape:connector-curvature="0"
         id="path6"
         d="m 308.085,304.104 c 0.038,-0.789 0.013,-5.474 0,0 z" /><path
         sodipodi:nodetypes="ccsccccsccc"
         inkscape:connector-curvature="0"
         id="path8"
         d="m 307.935,298.397 c -1.305,-82.342 -12.059,-88.54868 -94.352,-103.40068 0,0 -11.584,14.761 -38.584,14.761 -27,0 -38.586,-14.761 -38.586,-14.761 -81.395,14.69 -92.803,20.54868 -94.303,100.72568 -0.123,6.547 -0.18,6.891 -0.202,6.131 0.005,1.424 0.011,4.058 0.011,8.651 0,0 42.243942,57.54326 133.08,56.75232 84.91579,-0.7394 133.08,-56.75232 133.08,-56.75232 0,-2.951 0.002,-5.003 0.005,-6.399 -0.022,0.47 -0.066,-0.441 -0.149,-5.708 z" /></g></g><g
     id="g12" /><g
     id="g14" /><g
     id="g16" /><g
     id="g18" /><g
     id="g20" /><g
     id="g22" /><g
     id="g24" /><g
     id="g26" /><g
     id="g28" /><g
     id="g30" /><g
     id="g32" /><g
     id="g34" /><g
     id="g36" /><g
     id="g38" /><g
     id="g40" /></svg>